<svg id="Layer_1" data-name="Layer 1" xmlns="http://www.w3.org/2000/svg" viewBox="0 0 548.69 182.71"><defs><style>.cls-1{fill:#f05a28;}.cls-2{fill:#404041;}</style></defs><title>PropertySimpleHorizontal</title><path class="cls-1" d="M546.25,117.09l-.14,0a524.76,524.76,0,0,0-66-21.11c-11.23-2.76-22.52-5.33-33.88-7.58L444.49,88a2.33,2.33,0,0,0,.67-1.32l6-53.94A2.47,2.47,0,0,0,449,30.1l-24.3-2.72a2.38,2.38,0,0,0-.71.06l2.35-21c.21-1.87-.74-3.51-2.13-3.66L399.85,0c-1.38-.15-2.68,1.23-2.89,3.11l-4.27,38.12L372.82,39c-1.27-.14-2.39.5-2.49,1.43l-4.14,36.91a874.45,874.45,0,0,0-92.69-2.93c-23.11.52-46.21,1.54-69.21,3.69Q187,79.64,169.85,81.62c-11.46,1.39-22.88,3-34.29,4.76C90,93.43,44.85,103.21.93,117.44a1.35,1.35,0,0,0,.69,2.61q33.71-6.76,67.65-11.58c22.62-3.29,45.27-6.26,68-8.48,11.35-1.15,22.72-2.08,34.09-3s22.73-1.81,34.11-2.48q34.14-2,68.31-2.15c22.77.07,45.52.17,68.25,1.26s45.4,2.94,68,5.39,45.15,5.47,67.52,9.61c11.19,2,22.38,4.1,33.49,6.54q8.34,1.83,16.65,3.83c5.55,1.3,11.09,2.63,16.61,4a3.15,3.15,0,0,0,2-6ZM434.37,34.2c0-.27.48-.43,1-.37l9.09,1c.51.06.91.33.88.59l-1.2,10.74c0,.27-.47.43-1,.37l-9.08-1c-.52-.05-.92-.31-.89-.58ZM409.74,7.85c0-.27.47-.44,1-.38l9.09,1c.52.06.91.32.88.58l-1.2,10.74c0,.27-.47.43-1,.38l-9.09-1c-.52-.06-.92-.32-.89-.59Zm-1.91,18.79c0-.26.48-.43,1-.37l9.09,1c.52.05.91.31.89.58l-1.21,10.74c0,.26-.47.43-1,.37l-9.09-1c-.52-.05-.91-.31-.89-.58Z"/><path class="cls-2" d="M7.78,161.3v20H.34V132H8.77a37.84,37.84,0,0,1,9.36.86,12.52,12.52,0,0,1,5.63,3.26A14,14,0,0,1,28,146.61a13.53,13.53,0,0,1-4.53,10.73q-4.54,4-12.24,4Zm0-6.9h2.78q10.26,0,10.26-7.89,0-7.63-10.58-7.63H7.78Z"/><path class="cls-2" d="M51.73,160.31l15.27,21H57.89L43.8,161.14H42.46v20.19H35V132h8.72q9.78,0,14.12,3.67a13.52,13.52,0,0,1,4.79,10.8,14,14,0,0,1-3,9A13.4,13.4,0,0,1,51.73,160.31Zm-9.27-5.65h2.36q10.57,0,10.58-8.09,0-7.56-10.29-7.57H42.46Z"/><path class="cls-2" d="M70.18,156.45a24.14,24.14,0,0,1,7.63-17.89,25.11,25.11,0,0,1,18.27-7.48,25.8,25.8,0,0,1,25.66,25.65,24.26,24.26,0,0,1-7.61,18.05,26,26,0,0,1-35.58.83Q70.18,168.31,70.18,156.45Zm7.5.09A17.8,17.8,0,0,0,83.18,170a18.19,18.19,0,0,0,25.71-.1,19.14,19.14,0,0,0,.07-26.45,18.41,18.41,0,0,0-26,0A17.8,17.8,0,0,0,77.68,156.54Z"/><path class="cls-2" d="M137.89,161.3v20h-7.45V132h8.44a37.84,37.84,0,0,1,9.36.86,12.48,12.48,0,0,1,5.62,3.26,14,14,0,0,1,4.25,10.48,13.5,13.5,0,0,1-4.54,10.73q-4.53,4-12.23,4Zm0-6.9h2.78q10.25,0,10.25-7.89,0-7.63-10.57-7.63h-2.46Z"/><path class="cls-2" d="M192.34,139H172.56v11.85h19.2v7h-19.2v16.49h19.78v7H165.12V132h27.22Z"/><path class="cls-2" d="M218.17,160.31l15.27,21h-9.11l-14.08-20.19H208.9v20.19h-7.44V132h8.72q9.78,0,14.12,3.67a13.49,13.49,0,0,1,4.79,10.8,14,14,0,0,1-3,9A13.37,13.37,0,0,1,218.17,160.31Zm-9.27-5.65h2.37q10.57,0,10.57-8.09,0-7.56-10.28-7.57H208.9Z"/><path class="cls-2" d="M253.23,139v42.33h-7.44V139H234.45v-7h30.09v7Z"/><path class="cls-2" d="M283.69,160l-16.1-28h8.56l11.28,19.71L298.74,132h8.56l-16.16,28v21.31h-7.45Z"/><path class="cls-1" d="M338.68,144.63a15.56,15.56,0,0,0-4.19-2.52,11.05,11.05,0,0,0-4.06-.82,6.53,6.53,0,0,0-4.05,1.18,3.65,3.65,0,0,0-1.57,3.07,3,3,0,0,0,.78,2.16,6.8,6.8,0,0,0,2.06,1.47,16.64,16.64,0,0,0,2.88,1.08q1.61.47,3.18,1,6.27,2.08,9.19,5.59a13.81,13.81,0,0,1,2.91,9.13,17.78,17.78,0,0,1-1.28,6.87,14.25,14.25,0,0,1-3.73,5.26,17.22,17.22,0,0,1-6,3.41,25.22,25.22,0,0,1-8.08,1.21,29.7,29.7,0,0,1-17.33-5.57l5.49-10.33a22.43,22.43,0,0,0,5.69,3.79,13.7,13.7,0,0,0,5.57,1.25,6.61,6.61,0,0,0,4.67-1.44,4.37,4.37,0,0,0,1.54-3.28,4.46,4.46,0,0,0-.39-1.93,4.22,4.22,0,0,0-1.31-1.5,10.74,10.74,0,0,0-2.39-1.28c-1-.39-2.17-.82-3.56-1.3q-2.49-.8-4.88-1.74a15.17,15.17,0,0,1-4.25-2.52,11.57,11.57,0,0,1-3-4,14,14,0,0,1-1.14-6.05,17.45,17.45,0,0,1,1.21-6.64,14.72,14.72,0,0,1,3.4-5.1,15.23,15.23,0,0,1,5.36-3.31,20.41,20.41,0,0,1,7.1-1.17,30.92,30.92,0,0,1,7.66,1,33.82,33.82,0,0,1,7.65,3Z"/><path class="cls-1" d="M366,132v49.33H353.2V132Z"/><path class="cls-1" d="M373.48,181.33,381.86,132h12.69l9.88,26.3,9.81-26.3h12.7l8.37,49.33H422.55l-4.25-28.39-11.65,28.39h-5.1l-11.06-28.39-4.25,28.39Z"/><path class="cls-1" d="M455.59,181.33H442.77V132h20.41q8.31,0,12.73,4.32t4.41,12.17q0,7.84-4.41,12.17T463.18,165h-7.59Zm0-26.69h4.26q7.06,0,7.06-6.15t-7.06-6.15h-4.26Z"/><path class="cls-1" d="M499.3,132v38.47h15.37v10.86h-28.2V132Z"/><path class="cls-1" d="M548.69,142.86H533.45v8.24h14.39V162H533.45v8.5h15.24v10.86H520.63V132h28.06Z"/></svg>